M48
; DRILL file {KiCad 7.0.9} date Wed Jan  3 09:45:36 2024
; FORMAT={-:-/ absolute / metric / decimal}
; #@! TF.CreationDate,2024-01-03T09:45:36+09:00
; #@! TF.GenerationSoftware,Kicad,Pcbnew,7.0.9
; #@! TF.FileFunction,MixedPlating,1,2
FMAT,2
METRIC
; #@! TA.AperFunction,Plated,PTH,ViaDrill
T1C0.400
; #@! TA.AperFunction,Plated,PTH,ComponentDrill
T2C0.800
; #@! TA.AperFunction,Plated,PTH,ComponentDrill
T3C1.000
; #@! TA.AperFunction,Plated,PTH,ComponentDrill
T4C1.200
; #@! TA.AperFunction,NonPlated,NPTH,ComponentDrill
T5C2.100
; #@! TA.AperFunction,NonPlated,NPTH,ComponentDrill
T6C3.200
%
G90
G05
T1
X25.83Y58.688
X32.654Y36.056
X35.102Y6.166
X41.565Y37.229
X44.371Y53.395
X45.164Y43.75
X45.498Y11.695
X47.112Y56.02
X48.284Y30.153
X49.342Y30.921
X49.587Y28.746
X49.893Y16.847
X50.927Y54.875
X56.585Y31.293
X60.922Y64.018
X61.184Y45.236
X67.343Y22.001
X67.463Y34.465
X69.505Y16.083
X70.265Y32.721
X71.179Y13.783
X71.181Y20.434
X72.395Y52.316
X74.001Y27.2
X75.304Y27.24
X80.574Y8.334
X94.599Y14.208
T2
X3.342Y44.958
X4.72Y39.624
X4.72Y37.084
X4.72Y34.544
X4.826Y31.496
X4.826Y28.996
X5.842Y44.958
X7.874Y23.876
X7.874Y13.716
X9.144Y47.244
X9.144Y37.084
X10.922Y31.222
X10.922Y28.722
X11.176Y23.876
X11.176Y13.716
X12.446Y47.244
X12.446Y37.084
X15.24Y34.036
X15.24Y23.876
X15.748Y47.244
X15.748Y37.084
X16.002Y65.278
X16.002Y62.778
X19.05Y58.146
X19.05Y55.646
X19.05Y46.482
X19.05Y43.982
X20.828Y24.638
X20.828Y9.398
X21.839Y45.984
X21.839Y38.364
X21.844Y57.658
X21.844Y50.038
X21.964Y34.036
X23.368Y24.638
X23.368Y9.398
X23.563Y29.718
X24.379Y45.984
X24.379Y38.364
X24.384Y57.658
X24.384Y50.038
X24.464Y34.036
X25.908Y24.638
X25.908Y9.398
X26.919Y45.984
X26.919Y38.364
X26.924Y57.658
X26.924Y50.038
X26.964Y34.036
X28.443Y29.718
X28.448Y24.638
X28.448Y9.398
X29.459Y45.984
X29.459Y38.364
X29.464Y57.658
X29.464Y50.038
X29.464Y34.036
X30.988Y24.638
X30.988Y9.398
X31.999Y45.984
X31.999Y38.364
X32.004Y57.658
X32.004Y50.038
X33.528Y24.638
X33.528Y9.398
X34.539Y45.984
X34.539Y38.364
X34.544Y57.658
X34.544Y50.038
X36.068Y24.638
X36.068Y9.398
X36.337Y27.686
X37.079Y45.984
X37.079Y38.364
X37.084Y57.658
X37.084Y50.038
X38.608Y24.638
X38.608Y9.398
X38.837Y27.686
X40.132Y46.462
X40.132Y43.962
X40.386Y58.146
X40.386Y55.646
X41.148Y24.638
X41.148Y9.398
X43.17Y57.658
X43.17Y50.038
X43.18Y45.974
X43.18Y38.354
X43.688Y24.638
X43.688Y9.398
X45.71Y57.658
X45.71Y50.038
X45.72Y45.974
X45.72Y38.354
X46.228Y24.638
X46.228Y9.398
X48.25Y57.658
X48.25Y50.038
X48.26Y45.974
X48.26Y38.354
X48.768Y24.638
X48.768Y9.398
X50.79Y57.658
X50.79Y50.038
X50.8Y45.974
X50.8Y38.354
X51.308Y24.638
X51.308Y9.398
X53.33Y57.658
X53.33Y50.038
X53.34Y45.974
X53.34Y38.354
X53.848Y24.638
X53.848Y9.398
X55.87Y57.658
X55.87Y50.038
X55.88Y45.974
X55.88Y38.354
X56.388Y24.638
X56.388Y9.398
X58.41Y57.658
X58.41Y50.038
X58.42Y45.974
X58.42Y38.354
X58.928Y24.638
X58.928Y9.398
X60.95Y57.658
X60.95Y50.038
X61.468Y24.638
X61.468Y9.398
X64.008Y24.638
X64.008Y9.398
X66.548Y24.638
X66.548Y9.398
X68.58Y41.382
X68.58Y38.882
X69.088Y24.638
X69.088Y9.398
X71.887Y40.904
X71.887Y33.284
X74.168Y18.034
X74.168Y10.414
X74.422Y29.21
X74.422Y21.59
X74.427Y40.904
X74.427Y33.284
X76.708Y18.034
X76.708Y10.414
X76.962Y29.21
X76.962Y21.59
X76.967Y40.904
X76.967Y33.284
X79.248Y18.034
X79.248Y10.414
X79.502Y29.21
X79.502Y21.59
X79.507Y40.904
X79.507Y33.284
X81.788Y18.034
X81.788Y10.414
X82.042Y29.21
X82.042Y21.59
X82.047Y40.904
X82.047Y33.284
X84.328Y18.034
X84.328Y10.414
X84.582Y29.21
X84.582Y21.59
X84.587Y40.904
X84.587Y33.284
X86.868Y18.034
X86.868Y10.414
X87.122Y29.21
X87.122Y21.59
X87.127Y40.904
X87.127Y33.284
X89.408Y18.034
X89.408Y10.414
X89.662Y29.21
X89.662Y21.59
X89.667Y40.904
X89.667Y33.284
X91.948Y18.034
X91.948Y10.414
X92.202Y29.21
X92.202Y21.59
X92.207Y40.904
X92.207Y33.284
X94.488Y18.034
X94.488Y10.414
X94.742Y29.21
X94.742Y21.59
X94.747Y40.904
X94.747Y33.284
X97.282Y12.68
X97.282Y10.18
X97.536Y23.856
X97.536Y21.356
T3
X26.725Y64.915
X26.725Y62.375
X29.265Y64.915
X29.265Y62.375
X31.805Y64.915
X31.805Y62.375
X34.345Y64.915
X34.345Y62.375
X36.885Y64.915
X36.885Y62.375
X39.425Y64.915
X39.425Y62.375
X41.965Y64.915
X41.965Y62.375
X44.505Y64.915
X44.505Y62.375
X47.045Y64.915
X47.045Y62.375
X49.585Y64.915
X49.585Y62.375
X52.125Y64.915
X52.125Y62.375
X54.665Y64.915
X54.665Y62.375
X57.205Y64.915
X57.205Y62.375
X59.745Y64.915
X59.745Y62.375
X62.285Y64.915
X62.285Y62.375
X64.825Y64.915
X64.825Y62.375
X65.278Y56.776
X65.278Y54.236
X65.278Y49.276
X65.278Y46.736
X67.365Y64.915
X67.365Y62.375
X67.818Y56.776
X67.818Y54.236
X67.818Y49.276
X67.818Y46.736
X69.905Y64.915
X69.905Y62.375
X70.358Y56.776
X70.358Y54.236
X70.358Y49.276
X70.358Y46.736
X72.445Y64.915
X72.445Y62.375
X72.898Y56.776
X72.898Y54.236
X72.898Y49.276
X72.898Y46.736
X74.985Y64.915
X74.985Y62.375
X78.224Y56.094
X78.258Y48.116
X80.764Y56.094
X80.798Y48.116
X83.304Y56.094
X83.338Y48.116
X90.65Y64.5
X90.65Y61.96
X90.65Y59.42
X90.65Y56.88
X90.65Y54.34
X90.65Y51.8
T5
X7.358Y58.847
X7.358Y50.347
T6
X5.5Y70.5
X5.5Y4.5
X94.5Y70.5
X94.5Y4.5
T4
G00X10.508Y53.847
M15
G01X10.508Y55.347
M16
G05
G00X15.758Y54.597
M15
G01X14.258Y54.597
M16
G05
T0
M30
