M48
; DRILL file {KiCad 7.0.6-0} date 2024 February 18, Sunday 08:04:19
; FORMAT={-:-/ absolute / metric / decimal}
; #@! TF.CreationDate,2024-02-18T08:04:19+09:00
; #@! TF.GenerationSoftware,Kicad,Pcbnew,7.0.6-0
; #@! TF.FileFunction,MixedPlating,1,2
FMAT,2
METRIC
; #@! TA.AperFunction,Plated,PTH,ViaDrill
T1C0.400
; #@! TA.AperFunction,Plated,PTH,ComponentDrill
T2C0.800
; #@! TA.AperFunction,Plated,PTH,ComponentDrill
T3C1.000
; #@! TA.AperFunction,Plated,PTH,ComponentDrill
T4C1.200
; #@! TA.AperFunction,NonPlated,NPTH,ComponentDrill
T5C2.100
; #@! TA.AperFunction,NonPlated,NPTH,ComponentDrill
T6C3.200
%
G90
G05
T1
X30.592Y83.863
X31.767Y82.856
X32.267Y71.792
X37.72Y17.732
X50.377Y37.782
X51.5Y47.5
X53.297Y69.524
X54.136Y66.84
X54.205Y86.857
X63.294Y28.608
X64.018Y25.926
X73.147Y13.248
X78.759Y34.373
X89.5Y52.5
X92.5Y36.0
T2
X2.58Y68.116
X3.088Y56.178
X5.14Y3.473
X5.562Y24.174
X5.562Y21.634
X5.562Y19.094
X5.562Y16.554
X5.562Y14.014
X5.562Y11.474
X5.562Y8.934
X5.562Y6.394
X7.64Y3.473
X10.2Y43.986
X10.24Y49.574
X12.7Y43.986
X12.74Y68.116
X12.74Y49.574
X13.182Y24.174
X13.182Y21.634
X13.182Y19.094
X13.182Y16.554
X13.182Y14.014
X13.182Y11.474
X13.182Y8.934
X13.182Y6.394
X13.248Y56.178
X14.518Y92.525
X14.518Y90.025
X15.28Y68.116
X16.525Y62.782
X16.824Y3.473
X17.312Y24.174
X17.312Y21.634
X17.312Y19.094
X17.312Y16.554
X17.312Y14.014
X17.312Y11.474
X17.312Y8.934
X17.312Y6.394
X17.566Y56.432
X17.566Y52.876
X19.025Y62.782
X19.324Y3.473
X22.392Y47.542
X24.932Y47.542
X24.932Y24.174
X24.932Y21.634
X24.932Y19.094
X24.932Y16.554
X24.932Y14.014
X24.932Y11.474
X24.932Y8.934
X24.932Y6.394
X25.44Y68.116
X27.472Y47.542
X27.726Y56.432
X27.726Y52.876
X27.893Y3.346
X28.412Y24.174
X28.412Y21.634
X28.412Y19.094
X28.412Y16.554
X28.412Y14.014
X28.412Y11.474
X28.412Y8.934
X28.412Y6.394
X30.393Y3.346
X33.314Y37.114
X33.82Y55.924
X33.82Y40.684
X33.96Y85.0
X33.96Y77.38
X34.076Y72.688
X34.076Y65.068
X36.032Y24.174
X36.032Y21.634
X36.032Y19.094
X36.032Y16.554
X36.032Y14.014
X36.032Y11.474
X36.032Y8.934
X36.032Y6.394
X36.36Y55.924
X36.36Y40.684
X36.5Y85.0
X36.5Y77.38
X36.616Y72.688
X36.616Y65.068
X38.9Y55.924
X38.9Y40.684
X39.04Y85.0
X39.04Y77.38
X39.156Y72.688
X39.156Y65.068
X39.791Y3.346
X40.162Y24.174
X40.162Y21.634
X40.162Y19.094
X40.162Y16.554
X40.162Y14.014
X40.162Y11.474
X40.162Y8.934
X40.162Y6.394
X41.44Y55.924
X41.44Y40.684
X41.58Y85.0
X41.58Y77.38
X41.696Y72.688
X41.696Y65.068
X42.291Y3.346
X43.474Y37.114
X43.98Y55.924
X43.98Y40.684
X44.12Y85.0
X44.12Y77.38
X44.236Y72.688
X44.236Y65.068
X46.52Y55.924
X46.52Y40.684
X46.66Y85.0
X46.66Y77.38
X46.776Y72.688
X46.776Y65.068
X47.782Y24.174
X47.782Y21.634
X47.782Y19.094
X47.782Y16.554
X47.782Y14.014
X47.782Y11.474
X47.782Y8.934
X47.782Y6.394
X49.06Y55.924
X49.06Y40.684
X49.2Y85.0
X49.2Y77.38
X49.316Y72.688
X49.316Y65.068
X51.495Y3.346
X51.6Y55.924
X51.6Y40.684
X51.912Y24.174
X51.912Y21.634
X51.912Y19.094
X51.912Y16.554
X51.912Y14.014
X51.912Y11.474
X51.912Y8.934
X51.912Y6.394
X52.11Y79.78
X52.11Y77.28
X52.364Y67.568
X52.364Y65.068
X53.995Y3.346
X54.14Y55.924
X54.14Y40.684
X56.42Y85.0
X56.42Y77.38
X56.68Y55.924
X56.68Y40.684
X58.96Y85.0
X58.96Y77.38
X59.22Y55.924
X59.22Y40.684
X59.532Y24.174
X59.532Y21.634
X59.532Y19.094
X59.532Y16.554
X59.532Y14.014
X59.532Y11.474
X59.532Y8.934
X59.532Y6.394
X61.5Y85.0
X61.5Y77.38
X61.63Y37.424
X61.76Y55.924
X61.76Y40.684
X63.179Y3.346
X63.662Y24.174
X63.662Y21.634
X63.662Y19.094
X63.662Y16.554
X63.662Y14.014
X63.662Y11.474
X63.662Y8.934
X63.662Y6.394
X64.04Y85.0
X64.04Y77.38
X64.13Y37.424
X64.3Y55.924
X64.3Y40.684
X65.679Y3.346
X66.58Y85.0
X66.58Y77.38
X66.84Y55.924
X66.84Y40.684
X69.12Y85.0
X69.12Y77.38
X69.38Y55.924
X69.38Y40.684
X71.282Y24.174
X71.282Y21.634
X71.282Y19.094
X71.282Y16.554
X71.282Y14.014
X71.282Y11.474
X71.282Y8.934
X71.282Y6.394
X71.66Y85.0
X71.66Y77.38
X71.92Y55.924
X71.92Y40.684
X74.2Y85.0
X74.2Y77.38
X74.46Y55.924
X74.46Y40.684
X75.264Y3.346
X75.412Y24.174
X75.412Y21.634
X75.412Y19.094
X75.412Y16.554
X75.412Y14.014
X75.412Y11.474
X75.412Y8.934
X75.412Y6.394
X77.0Y55.924
X77.0Y40.684
X77.002Y79.76
X77.002Y77.26
X77.764Y3.346
X79.54Y55.924
X79.54Y40.684
X82.08Y55.924
X82.08Y40.684
X83.032Y24.174
X83.032Y21.634
X83.032Y19.094
X83.032Y16.554
X83.032Y14.014
X83.032Y11.474
X83.032Y8.934
X83.032Y6.394
X86.948Y3.346
X87.162Y24.174
X87.162Y21.634
X87.162Y19.094
X87.162Y16.554
X87.162Y14.014
X87.162Y11.474
X87.162Y8.934
X87.162Y6.394
X89.379Y47.307
X89.379Y42.427
X89.448Y3.346
X94.782Y24.174
X94.782Y21.634
X94.782Y19.094
X94.782Y16.554
X94.782Y14.014
X94.782Y11.474
X94.782Y8.934
X94.782Y6.394
X94.88Y49.723
X94.88Y47.223
X94.88Y43.674
X94.88Y41.174
T3
X25.8Y92.5
X25.8Y89.96
X28.34Y92.5
X28.34Y89.96
X30.88Y92.5
X30.88Y89.96
X33.42Y92.5
X33.42Y89.96
X35.96Y92.5
X35.96Y89.96
X38.5Y92.5
X38.5Y89.96
X41.04Y92.5
X41.04Y89.96
X43.58Y92.5
X43.58Y89.96
X46.12Y92.5
X46.12Y89.96
X48.66Y92.5
X48.66Y89.96
X51.2Y92.5
X51.2Y89.96
X53.74Y92.5
X53.74Y89.96
X56.28Y92.5
X56.28Y89.96
X58.82Y92.5
X58.82Y89.96
X61.36Y92.5
X61.36Y89.96
X63.794Y72.942
X63.794Y70.402
X63.794Y64.052
X63.794Y61.512
X63.9Y92.5
X63.9Y89.96
X66.334Y72.942
X66.334Y70.402
X66.334Y64.052
X66.334Y61.512
X66.44Y92.5
X66.44Y89.96
X68.874Y72.942
X68.874Y70.402
X68.874Y64.052
X68.874Y61.512
X68.98Y92.5
X68.98Y89.96
X71.414Y72.942
X71.414Y70.402
X71.414Y64.052
X71.414Y61.512
X71.52Y92.5
X71.52Y89.96
X74.06Y92.5
X74.06Y89.96
X78.78Y72.434
X78.78Y65.83
X81.32Y72.434
X81.32Y65.83
X83.86Y72.434
X83.86Y65.83
X93.512Y83.102
X93.512Y80.562
X93.512Y78.022
X93.512Y75.482
X93.512Y72.942
X93.512Y70.402
T5
X6.868Y81.51
X6.868Y73.01
T6
X5.5Y95.5
X5.5Y29.5
X94.5Y95.5
X94.5Y29.5
T4
G00X10.018Y76.51
M15
G01X10.018Y78.01
M16
G05
G00X15.268Y77.26
M15
G01X13.768Y77.26
M16
G05
T0
M30
