G04 #@! TF.GenerationSoftware,KiCad,Pcbnew,7.0.6-0*
G04 #@! TF.CreationDate,2024-02-18T08:04:11+09:00*
G04 #@! TF.ProjectId,KZ80-TMS9918A-DRAM-1bit,4b5a3830-2d54-44d5-9339-393138412d44,rev?*
G04 #@! TF.SameCoordinates,PX3ef1480PY94c5f00*
G04 #@! TF.FileFunction,Soldermask,Bot*
G04 #@! TF.FilePolarity,Negative*
%FSLAX46Y46*%
G04 Gerber Fmt 4.6, Leading zero omitted, Abs format (unit mm)*
G04 Created by KiCad (PCBNEW 7.0.6-0) date 2024-02-18 08:04:11*
%MOMM*%
%LPD*%
G01*
G04 APERTURE LIST*
%ADD10C,3.200000*%
%ADD11R,1.700000X1.700000*%
%ADD12O,1.700000X1.700000*%
%ADD13R,1.600000X1.600000*%
%ADD14O,1.600000X1.600000*%
%ADD15C,1.600000*%
%ADD16R,1.500000X1.500000*%
%ADD17C,1.500000*%
%ADD18C,2.100000*%
%ADD19O,3.500000X2.300000*%
%ADD20O,2.300000X3.500000*%
G04 APERTURE END LIST*
D10*
X5500000Y95500000D03*
D11*
X78780000Y72434000D03*
D12*
X81320000Y72434000D03*
X83860000Y72434000D03*
D13*
X75412000Y24174000D03*
D14*
X75412000Y21634000D03*
X75412000Y19094000D03*
X75412000Y16554000D03*
X75412000Y14014000D03*
X75412000Y11474000D03*
X75412000Y8934000D03*
X75412000Y6394000D03*
X83032000Y6394000D03*
X83032000Y8934000D03*
X83032000Y11474000D03*
X83032000Y14014000D03*
X83032000Y16554000D03*
X83032000Y19094000D03*
X83032000Y21634000D03*
X83032000Y24174000D03*
D15*
X15280000Y68116000D03*
D14*
X25440000Y68116000D03*
D15*
X2580000Y68116000D03*
D14*
X12740000Y68116000D03*
D11*
X71414000Y64052000D03*
D12*
X71414000Y61512000D03*
X68874000Y64052000D03*
X68874000Y61512000D03*
X66334000Y64052000D03*
X66334000Y61512000D03*
X63794000Y64052000D03*
X63794000Y61512000D03*
D15*
X77002000Y77260000D03*
X77002000Y79760000D03*
D13*
X63662000Y24174000D03*
D14*
X63662000Y21634000D03*
X63662000Y19094000D03*
X63662000Y16554000D03*
X63662000Y14014000D03*
X63662000Y11474000D03*
X63662000Y8934000D03*
X63662000Y6394000D03*
X71282000Y6394000D03*
X71282000Y8934000D03*
X71282000Y11474000D03*
X71282000Y14014000D03*
X71282000Y16554000D03*
X71282000Y19094000D03*
X71282000Y21634000D03*
X71282000Y24174000D03*
D16*
X22392000Y47542000D03*
D17*
X24932000Y47542000D03*
X27472000Y47542000D03*
D11*
X93512000Y83102000D03*
D12*
X93512000Y80562000D03*
X93512000Y78022000D03*
X93512000Y75482000D03*
X93512000Y72942000D03*
X93512000Y70402000D03*
D18*
X6868000Y73010000D03*
X6868000Y81510000D03*
D19*
X14518000Y77260000D03*
D20*
X10018000Y77260000D03*
D13*
X82080000Y55924000D03*
D14*
X79540000Y55924000D03*
X77000000Y55924000D03*
X74460000Y55924000D03*
X71920000Y55924000D03*
X69380000Y55924000D03*
X66840000Y55924000D03*
X64300000Y55924000D03*
X61760000Y55924000D03*
X59220000Y55924000D03*
X56680000Y55924000D03*
X54140000Y55924000D03*
X51600000Y55924000D03*
X49060000Y55924000D03*
X46520000Y55924000D03*
X43980000Y55924000D03*
X41440000Y55924000D03*
X38900000Y55924000D03*
X36360000Y55924000D03*
X33820000Y55924000D03*
X33820000Y40684000D03*
X36360000Y40684000D03*
X38900000Y40684000D03*
X41440000Y40684000D03*
X43980000Y40684000D03*
X46520000Y40684000D03*
X49060000Y40684000D03*
X51600000Y40684000D03*
X54140000Y40684000D03*
X56680000Y40684000D03*
X59220000Y40684000D03*
X61760000Y40684000D03*
X64300000Y40684000D03*
X66840000Y40684000D03*
X69380000Y40684000D03*
X71920000Y40684000D03*
X74460000Y40684000D03*
X77000000Y40684000D03*
X79540000Y40684000D03*
X82080000Y40684000D03*
D17*
X89379000Y47307000D03*
X89379000Y42427000D03*
D13*
X17312000Y24174000D03*
D14*
X17312000Y21634000D03*
X17312000Y19094000D03*
X17312000Y16554000D03*
X17312000Y14014000D03*
X17312000Y11474000D03*
X17312000Y8934000D03*
X17312000Y6394000D03*
X24932000Y6394000D03*
X24932000Y8934000D03*
X24932000Y11474000D03*
X24932000Y14014000D03*
X24932000Y16554000D03*
X24932000Y19094000D03*
X24932000Y21634000D03*
X24932000Y24174000D03*
D13*
X40162000Y24174000D03*
D14*
X40162000Y21634000D03*
X40162000Y19094000D03*
X40162000Y16554000D03*
X40162000Y14014000D03*
X40162000Y11474000D03*
X40162000Y8934000D03*
X40162000Y6394000D03*
X47782000Y6394000D03*
X47782000Y8934000D03*
X47782000Y11474000D03*
X47782000Y14014000D03*
X47782000Y16554000D03*
X47782000Y19094000D03*
X47782000Y21634000D03*
X47782000Y24174000D03*
D13*
X19025100Y62782000D03*
D15*
X16525100Y62782000D03*
X52110000Y77280000D03*
X52110000Y79780000D03*
X12700000Y43986000D03*
X10200000Y43986000D03*
X94880000Y41174000D03*
X94880000Y43674000D03*
D13*
X87162000Y24174000D03*
D14*
X87162000Y21634000D03*
X87162000Y19094000D03*
X87162000Y16554000D03*
X87162000Y14014000D03*
X87162000Y11474000D03*
X87162000Y8934000D03*
X87162000Y6394000D03*
X94782000Y6394000D03*
X94782000Y8934000D03*
X94782000Y11474000D03*
X94782000Y14014000D03*
X94782000Y16554000D03*
X94782000Y19094000D03*
X94782000Y21634000D03*
X94782000Y24174000D03*
D15*
X53995000Y3346000D03*
X51495000Y3346000D03*
D10*
X5500000Y29500000D03*
X94500000Y95500000D03*
D13*
X49316000Y72688000D03*
D14*
X46776000Y72688000D03*
X44236000Y72688000D03*
X41696000Y72688000D03*
X39156000Y72688000D03*
X36616000Y72688000D03*
X34076000Y72688000D03*
X34076000Y65068000D03*
X36616000Y65068000D03*
X39156000Y65068000D03*
X41696000Y65068000D03*
X44236000Y65068000D03*
X46776000Y65068000D03*
X49316000Y65068000D03*
D15*
X89448000Y3346000D03*
X86948000Y3346000D03*
X30393000Y3346000D03*
X27893000Y3346000D03*
X42291000Y3346000D03*
X39791000Y3346000D03*
X17566000Y52876000D03*
D14*
X27726000Y52876000D03*
D11*
X25800000Y89960000D03*
D12*
X25800000Y92500000D03*
X28340000Y89960000D03*
X28340000Y92500000D03*
X30880000Y89960000D03*
X30880000Y92500000D03*
X33420000Y89960000D03*
X33420000Y92500000D03*
X35960000Y89960000D03*
X35960000Y92500000D03*
X38500000Y89960000D03*
X38500000Y92500000D03*
X41040000Y89960000D03*
X41040000Y92500000D03*
X43580000Y89960000D03*
X43580000Y92500000D03*
X46120000Y89960000D03*
X46120000Y92500000D03*
X48660000Y89960000D03*
X48660000Y92500000D03*
X51200000Y89960000D03*
X51200000Y92500000D03*
X53740000Y89960000D03*
X53740000Y92500000D03*
X56280000Y89960000D03*
X56280000Y92500000D03*
X58820000Y89960000D03*
X58820000Y92500000D03*
X61360000Y89960000D03*
X61360000Y92500000D03*
X63900000Y89960000D03*
X63900000Y92500000D03*
X66440000Y89960000D03*
X66440000Y92500000D03*
X68980000Y89960000D03*
X68980000Y92500000D03*
X71520000Y89960000D03*
X71520000Y92500000D03*
X74060000Y89960000D03*
X74060000Y92500000D03*
D15*
X94880000Y49723000D03*
X94880000Y47223000D03*
X19324000Y3473000D03*
X16824000Y3473000D03*
D13*
X51912000Y24174000D03*
D14*
X51912000Y21634000D03*
X51912000Y19094000D03*
X51912000Y16554000D03*
X51912000Y14014000D03*
X51912000Y11474000D03*
X51912000Y8934000D03*
X51912000Y6394000D03*
X59532000Y6394000D03*
X59532000Y8934000D03*
X59532000Y11474000D03*
X59532000Y14014000D03*
X59532000Y16554000D03*
X59532000Y19094000D03*
X59532000Y21634000D03*
X59532000Y24174000D03*
D15*
X65679000Y3346000D03*
X63179000Y3346000D03*
D13*
X12740000Y49574000D03*
D15*
X10240000Y49574000D03*
D13*
X5562000Y24174000D03*
D14*
X5562000Y21634000D03*
X5562000Y19094000D03*
X5562000Y16554000D03*
X5562000Y14014000D03*
X5562000Y11474000D03*
X5562000Y8934000D03*
X5562000Y6394000D03*
X13182000Y6394000D03*
X13182000Y8934000D03*
X13182000Y11474000D03*
X13182000Y14014000D03*
X13182000Y16554000D03*
X13182000Y19094000D03*
X13182000Y21634000D03*
X13182000Y24174000D03*
D15*
X52364000Y65068000D03*
X52364000Y67568000D03*
X13248000Y56178000D03*
D14*
X3088000Y56178000D03*
D13*
X74200000Y85000000D03*
D14*
X71660000Y85000000D03*
X69120000Y85000000D03*
X66580000Y85000000D03*
X64040000Y85000000D03*
X61500000Y85000000D03*
X58960000Y85000000D03*
X56420000Y85000000D03*
X56420000Y77380000D03*
X58960000Y77380000D03*
X61500000Y77380000D03*
X64040000Y77380000D03*
X66580000Y77380000D03*
X69120000Y77380000D03*
X71660000Y77380000D03*
X74200000Y77380000D03*
D13*
X28412000Y24174000D03*
D14*
X28412000Y21634000D03*
X28412000Y19094000D03*
X28412000Y16554000D03*
X28412000Y14014000D03*
X28412000Y11474000D03*
X28412000Y8934000D03*
X28412000Y6394000D03*
X36032000Y6394000D03*
X36032000Y8934000D03*
X36032000Y11474000D03*
X36032000Y14014000D03*
X36032000Y16554000D03*
X36032000Y19094000D03*
X36032000Y21634000D03*
X36032000Y24174000D03*
D15*
X7640000Y3473000D03*
X5140000Y3473000D03*
D13*
X14518000Y90024900D03*
D15*
X14518000Y92524900D03*
D11*
X71414000Y72942000D03*
D12*
X71414000Y70402000D03*
X68874000Y72942000D03*
X68874000Y70402000D03*
X66334000Y72942000D03*
X66334000Y70402000D03*
X63794000Y72942000D03*
X63794000Y70402000D03*
D15*
X17566000Y56432000D03*
D14*
X27726000Y56432000D03*
D15*
X43474000Y37114000D03*
D14*
X33314000Y37114000D03*
D11*
X78780000Y65830000D03*
D12*
X81320000Y65830000D03*
X83860000Y65830000D03*
D10*
X94500000Y29500000D03*
D15*
X77764000Y3346000D03*
X75264000Y3346000D03*
D13*
X49200000Y85000000D03*
D14*
X46660000Y85000000D03*
X44120000Y85000000D03*
X41580000Y85000000D03*
X39040000Y85000000D03*
X36500000Y85000000D03*
X33960000Y85000000D03*
X33960000Y77380000D03*
X36500000Y77380000D03*
X39040000Y77380000D03*
X41580000Y77380000D03*
X44120000Y77380000D03*
X46660000Y77380000D03*
X49200000Y77380000D03*
D15*
X64130000Y37424000D03*
X61630000Y37424000D03*
M02*
